<?xml version="1.0" encoding="utf-8"?>
<!-- Generator: Adobe Illustrator 22.1.0, SVG Export Plug-In . SVG Version: 6.00 Build 0)  -->
<svg version="1.1" id="ic-building" xmlns="http://www.w3.org/2000/svg" xmlns:xlink="http://www.w3.org/1999/xlink" x="0px"
	 y="0px" viewBox="0 0 50 50" style="enable-background:new 0 0 50 50;" xml:space="preserve">
<style type="text/css">
	.st0{fill:#ACACAC;enable-background:new    ;}
</style>
<g id="right-building">
	<path class="st0" d="M27.8,17.1v30.4h7.4c0-0.1,0-0.2,0-0.4v-1.9c0-1.3,1.1-2.4,2.4-2.4h1.9c1.3,0,2.4,1.1,2.4,2.4v1.9
		c0,0.1,0,0.2,0,0.4h7.4V28.8L27.8,17.1z M36.2,39.3h-3.9c-0.8,0-1.4-0.6-1.4-1.4s0.6-1.4,1.4-1.4h3.9c0.8,0,1.4,0.6,1.4,1.4
		C37.5,38.7,37,39.3,36.2,39.3z M36.2,34.3h-3.9c-0.8,0-1.4-0.6-1.4-1.4s0.6-1.4,1.4-1.4h3.9c0.8,0,1.4,0.6,1.4,1.4
		C37.5,33.7,37,34.3,36.2,34.3z M44.9,39.3H41c-0.8,0-1.4-0.6-1.4-1.4s0.6-1.4,1.4-1.4h3.9c0.8,0,1.4,0.6,1.4,1.4
		S45.6,39.3,44.9,39.3z M44.9,34.3H41c-0.8,0-1.4-0.6-1.4-1.4s0.6-1.4,1.4-1.4h3.9c0.8,0,1.4,0.6,1.4,1.4
		C46.3,33.7,45.6,34.3,44.9,34.3z"/>
</g>
<g id="left-building">
	<path class="st0" d="M0.6,2.4v45.2h7.4c0-0.1,0-0.2,0-0.4v-1.9c0-1.3,1.1-2.4,2.4-2.4h1.9c1.3,0,2.4,1.1,2.4,2.4v1.9
		c0,0.1,0,0.2,0,0.4h7.4V14.2L0.6,2.4z M8.9,39.3H5c-0.8,0-1.4-0.6-1.4-1.4s0.6-1.4,1.4-1.4h3.9c0.8,0,1.4,0.6,1.4,1.4
		C10.2,38.7,9.7,39.3,8.9,39.3z M8.9,34.3H5c-0.8,0-1.4-0.6-1.4-1.4s0.6-1.4,1.4-1.4h3.9c0.8,0,1.4,0.6,1.4,1.4
		C10.2,33.7,9.7,34.3,8.9,34.3z M8.9,29.4H5c-0.8,0-1.4-0.6-1.4-1.4c0-0.8,0.6-1.4,1.4-1.4h3.9c0.8,0,1.4,0.6,1.4,1.4
		C10.2,28.7,9.7,29.4,8.9,29.4z M8.9,24.5H5c-0.8,0-1.4-0.6-1.4-1.4c0-0.8,0.6-1.4,1.4-1.4h3.9c0.8,0,1.4,0.6,1.4,1.4
		C10.3,23.9,9.7,24.5,8.9,24.5z M8.9,19.5H5c-0.8,0-1.4-0.6-1.4-1.4c0-0.8,0.6-1.4,1.4-1.4h3.9c0.8,0,1.4,0.6,1.4,1.4
		C10.2,19,9.7,19.5,8.9,19.5z M17.6,39.3h-3.9c-0.8,0-1.4-0.6-1.4-1.4s0.6-1.4,1.4-1.4h3.9c0.8,0,1.4,0.6,1.4,1.4
		S18.3,39.3,17.6,39.3z M17.6,34.3h-3.9c-0.8,0-1.4-0.6-1.4-1.4s0.6-1.4,1.4-1.4h3.9c0.8,0,1.4,0.6,1.4,1.4
		C19,33.7,18.3,34.3,17.6,34.3z M17.6,29.4h-3.9c-0.8,0-1.4-0.6-1.4-1.4c0-0.8,0.6-1.4,1.4-1.4h3.9c0.8,0,1.4,0.6,1.4,1.4
		C19,28.7,18.3,29.4,17.6,29.4z M17.6,24.5h-3.9c-0.8,0-1.4-0.6-1.4-1.4c0-0.8,0.6-1.4,1.4-1.4h3.9c0.8,0,1.4,0.6,1.4,1.4
		C19,23.9,18.3,24.5,17.6,24.5z M17.6,19.5h-3.9c-0.8,0-1.4-0.6-1.4-1.4c0-0.8,0.6-1.4,1.4-1.4h3.9c0.8,0,1.4,0.6,1.4,1.4
		C19,19,18.3,19.5,17.6,19.5z"/>
</g>
</svg>
