<?xml version="1.0" encoding="utf-8"?>
<!-- Generator: Adobe Illustrator 22.1.0, SVG Export Plug-In . SVG Version: 6.00 Build 0)  -->
<svg version="1.1" id="ic-email" xmlns="http://www.w3.org/2000/svg" xmlns:xlink="http://www.w3.org/1999/xlink" x="0px" y="0px"
	 viewBox="0 0 50 50" style="enable-background:new 0 0 50 50;" xml:space="preserve">
<style type="text/css">
	.st0{fill:#ACACAC;}
</style>
<g>
	<path class="st0" d="M49.6,11.6c0-1.2-1-2.2-2.2-2.2H2.6c-1.2,0-2.2,1-2.2,2.2c0,0,0,0,0,0l0,0v25.7c0,1.9,1.5,3.4,3.3,3.4H25h21.3
		c1.8,0,3.3-1.5,3.3-3.4V11.6C49.6,11.6,49.6,11.6,49.6,11.6C49.6,11.6,49.6,11.6,49.6,11.6z M43.2,13.8L27.6,26.1
		c-0.7,0.6-1.6,0.8-2.6,0.8c0,0,0,0-0.1,0c0,0,0,0-0.1,0c-0.9,0-1.8-0.3-2.6-0.8L6.8,13.8H43.2z M45.1,36.2H25H4.9V18l14.8,11.6
		c1.5,1.2,3.4,1.8,5.3,1.8c2.1,0,4-0.6,5.4-1.8L45.1,18V36.2z"/>
</g>
</svg>
