<?xml version="1.0" encoding="utf-8"?>
<!-- Generator: Adobe Illustrator 22.1.0, SVG Export Plug-In . SVG Version: 6.00 Build 0)  -->
<svg version="1.1" id="ic-phone" xmlns="http://www.w3.org/2000/svg" xmlns:xlink="http://www.w3.org/1999/xlink" x="0px" y="0px"
	 viewBox="0 0 50 50" style="enable-background:new 0 0 50 50;" xml:space="preserve">
<style type="text/css">
	.st0{fill:#ACACAC;}
</style>
<g>
	<path class="st0" d="M38.3,44.7l0.3,0l5-5l-5.1-5l-1.6,1.6c-0.6,0.6-1.4,1.1-2.3,1.4C34,37.9,33.3,38,32.7,38L32,38l-0.5-0.1
		l-0.4-0.1c-0.9-0.2-1.9-0.6-3.2-1.2c-1.1-0.5-2.3-1.3-3.7-2.4c-1.5-1.1-3-2.5-4.7-4.2c-1.8-1.8-3.2-3.3-4.2-4.8
		c-1-1.4-1.8-2.7-2.3-3.7c-0.6-1.2-1.1-2.4-1.3-3.4c-0.2-1.1-0.2-2.2,0.2-3.3c0.3-0.9,0.8-1.7,1.4-2.3l1.3-1.3l-4.2-4.7l-4.9,4.9
		l0,0.6c0,0,0,0.4,0.2,1.5c0.1,0.8,0.4,1.9,0.8,3.2c0.4,1.2,1,2.7,1.9,4.3c0.9,1.6,2,3.5,3.5,5.5c1.4,2,3.3,4.1,5.6,6.3
		c2.8,2.8,5.4,5.1,7.9,6.6c2.4,1.6,4.6,2.8,6.5,3.6c2.2,0.9,3.5,1.2,4.3,1.3C37.6,44.7,38.2,44.7,38.3,44.7 M38.3,49.6
		c-0.7,0-1.7-0.1-3.2-0.3c-1.5-0.2-3.3-0.8-5.4-1.7c-2.1-0.9-4.6-2.2-7.3-4c-2.7-1.8-5.6-4.2-8.7-7.3c-2.4-2.4-4.5-4.7-6.1-6.9
		c-1.6-2.2-2.9-4.2-3.9-6.1c-1-1.9-1.7-3.6-2.2-5.1c-0.5-1.5-0.7-2.8-1-3.9c-0.6-2.7-0.2-4,0.3-5.1C1.2,8.8,1.5,8.3,1.8,8l6.9-6.9
		c0.5-0.5,1-0.7,1.7-0.7c0.5,0,0.9,0.1,1.2,0.4c0.7,0.6,8.1,9.3,8.1,9.3c0.3,0.6,0.4,1.2,0.3,1.8c-0.1,0.7-0.4,1.2-0.9,1.7l-2.6,2.6
		c-0.1,0.1-0.1,0.2-0.2,0.3c0,0-0.1,0.4,0,0.6c0.2,0.7,0.5,1.4,0.9,2.3c0.4,0.8,1.1,1.9,1.9,3.1c0.9,1.2,2.1,2.6,3.7,4.2
		c1.6,1.6,3,2.8,4.2,3.7c1.2,0.9,2.2,1.5,3.1,2c0.8,0.4,1.4,0.7,1.9,0.8l0.4,0.1c0.1,0,0.1,0,0.2,0c0.1,0,0.2,0,0.3-0.1c0,0,0,0,0,0
		c0.2,0,0.3-0.1,0.3-0.2l2.9-3c0,0,0,0,0.1-0.1c0.6-0.5,1.3-0.8,2.2-0.8c0,0,0,0,0,0c0.7,0,1.4,0.3,1.9,0.8l7.9,7.7
		c0.7,0.4,1.1,1,1.3,1.7c0,0,0,0.1,0,0.1c0.1,0.8-0.2,1.4-0.7,2L42,48.2c-0.3,0.3-0.8,0.6-1.2,0.9C39.8,49.7,38.6,49.6,38.3,49.6
		L38.3,49.6L38.3,49.6z"/>
</g>
</svg>
