<?xml version="1.0" encoding="utf-8"?>
<!-- Generator: Adobe Illustrator 23.0.1, SVG Export Plug-In . SVG Version: 6.00 Build 0)  -->
<svg version="1.1" id="ic-quote" xmlns="http://www.w3.org/2000/svg" xmlns:xlink="http://www.w3.org/1999/xlink" x="0px" y="0px"
	 viewBox="0 0 50 50" style="enable-background:new 0 0 50 50;" xml:space="preserve">
<style type="text/css">
	.st0{fill:#00AF54;}
</style>
<g>
	<g>
		<g>
			<g>
				<path class="st0" d="M15.6,6.3c-0.9-0.8-1.8-1.4-2.9-1.9l0,0l0,0c-1-0.4-2-0.7-3.1-0.7c-5,0-9,4.2-9,9.3s4,9.3,9,9.3
					c1.6,0,3.1-0.5,4.4-1.2c-0.4,5-3,12.3-12.2,19.7c-1.3,1-1.5,3-0.5,4.3c0.6,0.8,1.5,1.2,2.3,1.2c0.6,0,1.3-0.2,1.8-0.6
					c11.3-9.1,14.1-18.5,14.5-24.8c0.6-8-1.8-12.2-4-14.4L15.6,6.3z"/>
				<path class="st0" d="M49.1,13.8c-0.7-3.3-2.1-6.2-5.2-8.5l0,0C43.5,5,43,4.7,42.6,4.5l-0.4-0.2c-1-0.4-2-0.7-3.1-0.7
					c-5,0-9,4.2-9,9.3s4,9.3,9,9.3c1.6,0,3.1-0.5,4.4-1.2c-0.4,5-3,12.3-12.2,19.7c-1.3,1-1.5,3-0.5,4.3c0.6,0.8,1.5,1.2,2.3,1.2
					c0.6,0,1.3-0.2,1.8-0.6C46.2,36.5,49,27.2,49.4,20.9C49.6,18.1,49.5,15.8,49.1,13.8z"/>
			</g>
		</g>
	</g>
</g>
</svg>
