<?xml version="1.0" encoding="utf-8"?>
<!-- Generator: Adobe Illustrator 22.1.0, SVG Export Plug-In . SVG Version: 6.00 Build 0)  -->
<svg version="1.1" id="ic-profile" xmlns="http://www.w3.org/2000/svg" xmlns:xlink="http://www.w3.org/1999/xlink" x="0px" y="0px"
	 viewBox="0 0 50 50" style="enable-background:new 0 0 50 50;" xml:space="preserve">
<style type="text/css">
	.st0{fill:#ACACAC;}
</style>
<g>
	<path class="st0" d="M40.5,44.3c-2.4-6-8.4-10.2-15.5-10.2S11.8,38.3,9.5,44.3H40.5 M25,18.1c3.2,0,5.7-2.8,5.7-6.2
		S28.2,5.7,25,5.7c-3.2,0-5.7,2.8-5.7,6.2S21.8,18.1,25,18.1 M47.1,49.8H2.9c0-11.8,9.9-21.3,22.1-21.3
		C37.2,28.5,47.1,38.1,47.1,49.8L47.1,49.8L47.1,49.8z M25,23.7c-6.2,0-11.3-5.3-11.3-11.7c0-6.5,5-11.7,11.3-11.7
		c6.2,0,11.3,5.3,11.3,11.7C36.3,18.4,31.2,23.7,25,23.7L25,23.7L25,23.7z"/>
</g>
</svg>
