<?xml version="1.0" encoding="utf-8"?>
<!-- Generator: Adobe Illustrator 23.0.1, SVG Export Plug-In . SVG Version: 6.00 Build 0)  -->
<svg version="1.1" id="ic-new-client" xmlns="http://www.w3.org/2000/svg" xmlns:xlink="http://www.w3.org/1999/xlink" x="0px"
	 y="0px" viewBox="0 0 55 55" style="enable-background:new 0 0 55 55;" xml:space="preserve">
<style type="text/css">
	.st0{fill:#00AF54;}
	.st1{fill:#FFFFFF;}
	.st2{fill:#1FCC65;}
	.st3{display:none;fill:#1DBD73;}
</style>
<g>
	<path class="st0" d="M40.2,32.9c-0.3-0.2-0.7-0.3-1.1-0.4c-1,3-4.5,5.2-8.6,5.2c-4.1,0-7.6-2.2-8.6-5.2c-0.5,0.1-1.1,0.2-1.5,0.4
		c-7.1,3.6-4.5,14.9-4.5,14.9l11.8,0l5.3,0l11.9,0C44.9,47.9,47.3,36.4,40.2,32.9z"/>
	<g>
		<path class="st1" d="M30.1,42.5c-0.6,0-1.1-0.5-1.1-1.1V41c0-0.6,0.5-1.1,1.1-1.1s1.1,0.5,1.1,1.1v0.4
			C31.2,42,30.7,42.5,30.1,42.5z"/>
	</g>
	<g>
		<path class="st1" d="M30.1,46.1c-0.6,0-1.1-0.5-1.1-1.1v-0.4c0-0.6,0.5-1.1,1.1-1.1s1.1,0.5,1.1,1.1v0.4
			C31.2,45.7,30.7,46.1,30.1,46.1z"/>
	</g>
	<path class="st2" d="M30,20.2c-3.1,0.3-6-0.5-7.9-2c-1.1,1.7-1.8,3.7-1.8,6c0,5.8,4.6,10.5,10.1,10.5S40.6,29.8,40.6,24
		c0-0.9-0.1-1.7-0.3-2.5C38.1,19.5,35.3,19.7,30,20.2z"/>
	<path class="st2" d="M41.5,21.6c0.3,0.9,0.4,1.9,0.4,3c0,1.1-0.3,2.1-0.6,3c1.4-0.2,2.6-1.4,2.6-2.9C43.9,23.2,42.9,21.9,41.5,21.6
		z"/>
	<path class="st2" d="M19.4,21.6c-0.3,0.9-0.4,1.9-0.4,3c0,1.1,0.3,2.1,0.6,3c-1.4-0.2-2.6-1.4-2.6-2.9C16.9,23.2,18,21.9,19.4,21.6
		z"/>
	<g>
		<path class="st1" d="M26.7,26.1c-0.6,0-1.1-0.5-1.1-1.1v-0.4c0-0.6,0.5-1.1,1.1-1.1s1.1,0.5,1.1,1.1v0.4
			C27.7,25.7,27.3,26.1,26.7,26.1z"/>
	</g>
	<g>
		<path class="st1" d="M30.5,31.4c-1.7,0-3.2-0.7-4.1-1.9c-0.3-0.5-0.2-1.1,0.2-1.5c0.5-0.3,1.1-0.2,1.5,0.2c0.5,0.6,1.4,1,2.4,1
			c1,0,1.9-0.4,2.4-1c0.3-0.5,1-0.6,1.5-0.2c0.5,0.3,0.6,1,0.2,1.5C33.7,30.7,32.2,31.4,30.5,31.4z"/>
	</g>
	<g>
		<path class="st1" d="M34.8,26.1c-0.6,0-1.1-0.5-1.1-1.1v-0.4c0-0.6,0.5-1.1,1.1-1.1s1.1,0.5,1.1,1.1v0.4
			C35.8,25.7,35.3,26.1,34.8,26.1z"/>
	</g>
	<path class="st0" d="M40.3,19.7c0,0,2.6-7.1-3.7-10.5s-12.6,0-13,3.7s3.7,5.9,8.1,5.6S38.5,17.9,40.3,19.7z"/>
	<path class="st0" d="M24.1,9.5c0,0-3.6,2.4-1.6,6.5c0,0-2,0.8-2.4,3.2C20,19.2,14,11.5,24.1,9.5z"/>
	<g>
		<path class="st0" d="M13.9,38.7c-3.4-0.2-6.2-2.2-7-4.7c-0.5,0.1-1,0.2-1.4,0.4c-6.4,3.3-4,13.5-4,13.5l10.7,0l1.4,0
			C13.4,47.4,12.5,42.6,13.9,38.7z"/>
		<path class="st2" d="M4.5,24.1c-0.2,0.8-0.4,1.7-0.3,2.7s0.2,1.9,0.5,2.7c-1.3-0.2-2.3-1.3-2.4-2.6C2.3,25.5,3.3,24.4,4.5,24.1z"
			/>
		<g>
			<g>
				<g>
					<g>
						<path class="st3" d="M0.8,49.4c0-0.6,0-1.3,0.1-1.9c-1.9-0.3-3.6-0.9-4.9-1.9c-1.1,1.7-1.7,3.8-1.7,6
							c0,6.1,4.9,11.1,10.9,11.1c0.5,0,0.9,0,1.4-0.1C3,59.3,0.8,54.6,0.8,49.4z"/>
					</g>
				</g>
			</g>
		</g>
		<path class="st0" d="M17.4,11.9c-4.8-1.2-9.1,1.4-9.4,4.3c-0.2,2.2,1.3,3.8,3.4,4.6C12.3,17.1,14.4,14,17.4,11.9z"/>
		<path class="st2" d="M12.4,30.3c0-2.9,1-5.6,2.7-7.6c-0.3,0-0.6,0.1-1,0.1C11.4,23,8.7,22.3,7,20.9c-1,1.5-1.6,3.4-1.6,5.4
			c0,4.9,3.6,9,8.3,9.4C12.9,34.1,12.4,32.3,12.4,30.3z"/>
		<path class="st0" d="M8.4,13.1c0,0-3.3,2.2-1.5,5.9c0,0-1.8,0.7-2.2,2.9C4.7,21.9-0.8,14.9,8.4,13.1z"/>
	</g>
	<path class="st0" d="M49.9,34.8c-0.6,0-1.1-0.5-1.1-1.1v-6.1c0-0.6,0.5-1.1,1.1-1.1s1.1,0.5,1.1,1.1v6.1
		C51,34.3,50.5,34.8,49.9,34.8z"/>
	<path class="st0" d="M52.9,31.8h-6.1c-0.6,0-1.1-0.5-1.1-1.1c0-0.6,0.5-1.1,1.1-1.1h6.1c0.6,0,1.1,0.5,1.1,1.1
		C54,31.3,53.5,31.8,52.9,31.8z"/>
</g>
</svg>
