<?xml version="1.0" encoding="utf-8"?>
<!-- Generator: Adobe Illustrator 23.0.1, SVG Export Plug-In . SVG Version: 6.00 Build 0)  -->
<svg version="1.1" id="ic-pdf" xmlns="http://www.w3.org/2000/svg" xmlns:xlink="http://www.w3.org/1999/xlink" x="0px" y="0px"
	 viewBox="0 0 50 50" style="enable-background:new 0 0 50 50;" xml:space="preserve">
<style type="text/css">
	.st0{fill:#00AF54;}
	.st1{fill:#FFFFFF;}
	.st2{fill:#1FCC65;}
</style>
<g id="bottom-part">
	<path class="st0" d="M42.7,49.2H7.3c-0.7,0-1.3-0.6-1.3-1.3V34.2h38v13.7C44,48.6,43.4,49.2,42.7,49.2z"/>
	<g>
		<path class="st1" d="M15.6,46.6h-1.4v-8.9h2.5c0.4,0,0.7,0,1.1,0.2c0.3,0.1,0.7,0.3,1,0.5c0.3,0.2,0.5,0.5,0.7,0.9
			c0.2,0.3,0.2,0.7,0.2,1.1c0,0.4-0.1,0.8-0.2,1.2c-0.1,0.3-0.3,0.7-0.6,0.9s-0.6,0.4-1,0.6c-0.4,0.1-0.8,0.2-1.3,0.2h-1.1
			L15.6,46.6L15.6,46.6z M15.6,38.8v3.5h1.3c0.2,0,0.3,0,0.5-0.1c0.1,0,0.3-0.1,0.5-0.3c0.1-0.1,0.2-0.3,0.3-0.6s0.1-0.5,0.1-0.9
			c0-0.1,0-0.3,0-0.5c0-0.2-0.1-0.3-0.2-0.5c-0.1-0.1-0.3-0.3-0.5-0.4c-0.2-0.1-0.5-0.2-0.9-0.2L15.6,38.8L15.6,38.8z"/>
		<path class="st1" d="M28.7,41.9c0,0.7-0.1,1.3-0.2,1.9c-0.1,0.5-0.3,0.9-0.6,1.3c-0.2,0.3-0.5,0.6-0.8,0.8
			c-0.3,0.2-0.6,0.3-0.9,0.4c-0.3,0.1-0.5,0.1-0.8,0.2c-0.2,0-0.4,0-0.5,0h-3.4v-8.9h2.7c0.7,0,1.4,0.1,2,0.3c0.5,0.2,1,0.5,1.4,0.9
			c0.4,0.4,0.6,0.8,0.8,1.3C28.6,40.8,28.7,41.3,28.7,41.9z M24.4,45.5c1,0,1.7-0.3,2.1-0.9c0.4-0.6,0.6-1.5,0.6-2.7
			c0-0.3,0-0.7-0.1-1.1s-0.2-0.7-0.5-1c-0.2-0.3-0.6-0.5-1-0.7c-0.4-0.2-1-0.2-1.7-0.2H23v6.8C23,45.5,24.4,45.5,24.4,45.5z"/>
		<path class="st1" d="M32.3,38.8v2.8H36v1h-3.7v4h-1.5v-8.9h5.6v1.1H32.3z"/>
	</g>
</g>
<g id="top-part">
	<path class="st2" d="M44,31.4V12.3c0-0.6-0.1-0.8-0.2-0.9L33.5,1c-0.1-0.1-0.3-0.2-0.5-0.2H7.3C6.6,0.8,6,1.4,6,2.5v28.9H44z"/>
	<path class="st1" d="M17.5,28L17.5,28c-0.3,0-0.6-0.1-0.8-0.3c-0.9-0.7-1-1.4-1-2c0.1-1.4,1.9-2.9,5.3-4.5c1.3-2.9,2.6-6.5,3.3-9.5
		c-0.9-1.9-1.7-4.4-1.1-5.9c0.2-0.5,0.5-0.9,1-1.1c0.2,0,0.7-0.1,0.9-0.1c0.4,0,0.8,0.6,1.1,0.9c0.2,0.3,0.8,1-0.3,6
		c1.2,2.4,2.9,5,4.5,6.7c1.1-0.2,2.1-0.3,3-0.3c1.4,0,2.2,0.3,2.6,1c0.3,0.5,0.1,1.2-0.3,1.9c-0.5,0.7-1.2,1-1.9,1
		c-1.1,0-2.3-0.7-3.7-2c-2.5,0.5-5.4,1.4-7.8,2.5c-0.7,1.6-1.4,2.8-2.1,3.8C19,27.4,18.3,28,17.5,28z M19.9,23.5
		c-1.9,1-2.6,1.9-2.7,2.4c0,0.1,0,0.3,0.4,0.6C17.6,26.5,18.4,26.2,19.9,23.5z M31.9,19.6c0.7,0.5,0.9,0.8,1.3,0.8
		c0.2,0,0.8,0,1-0.4c0.1-0.2,0.2-0.3,0.2-0.3c-0.1,0-0.2-0.2-1-0.2C33.1,19.5,32.5,19.5,31.9,19.6z M25.3,13.8
		c-0.6,2.2-1.4,4.5-2.4,6.7c1.8-0.7,3.8-1.3,5.7-1.8C27.5,17.2,26.3,15.6,25.3,13.8z M24.8,6.3c-0.1,0-1.2,1.5,0.1,2.8
		C25.7,7.2,24.8,6.3,24.8,6.3z"/>
</g>
</svg>
