<?xml version="1.0" encoding="utf-8"?>
<!-- Generator: Adobe Illustrator 23.0.1, SVG Export Plug-In . SVG Version: 6.00 Build 0)  -->
<svg version="1.1" id="ic-reputation" xmlns="http://www.w3.org/2000/svg" xmlns:xlink="http://www.w3.org/1999/xlink" x="0px"
	 y="0px" viewBox="0 0 55 55" style="enable-background:new 0 0 55 55;" xml:space="preserve">
<style type="text/css">
	.st0{fill:#1FCC65;}
	.st1{fill:#FFFFFF;}
	.st2{fill:#00AF54;}
</style>
<g>
	<circle class="st0" cx="27.8" cy="26.5" r="15.3"/>
</g>
<g>
	<path class="st1" d="M28.4,20.8l1.4,2.9c0.1,0.2,0.3,0.4,0.6,0.4l3.2,0.5c0.6,0.1,0.9,0.8,0.4,1.3L31.7,28
		c-0.2,0.2-0.3,0.4-0.2,0.7l0.5,3.1c0.1,0.6-0.5,1.1-1.1,0.8l-2.8-1.5c-0.2-0.1-0.5-0.1-0.7,0l-2.8,1.5c-0.5,0.3-1.2-0.2-1.1-0.8
		l0.5-3.1c0-0.2,0-0.5-0.2-0.7l-2.3-2.2c-0.4-0.4-0.2-1.2,0.4-1.3l3.2-0.5c0.2,0,0.5-0.2,0.6-0.4l1.4-2.9
		C27.4,20.2,28.2,20.2,28.4,20.8z"/>
</g>
<g>
	<g>
		<path class="st2" d="M33.6,44.2l3.9,10.3l2.8-5.5l5.7,2.3l-4.6-12C39.3,41.5,36.6,43.2,33.6,44.2z"/>
	</g>
	<g>
		<path class="st2" d="M14.1,39.3l-4.6,12l5.7-2.3l2.8,5.5l3.9-10.3C18.9,43.2,16.2,41.5,14.1,39.3z"/>
	</g>
</g>
<g>
	<path class="st1" d="M27.8,39.4c-7.1,0-12.8-5.8-12.8-12.8c0-7.1,5.8-12.8,12.8-12.8s12.8,5.8,12.8,12.8
		C40.6,33.6,34.9,39.4,27.8,39.4z M27.8,16c-5.8,0-10.5,4.7-10.5,10.5c0,5.8,4.7,10.5,10.5,10.5c5.8,0,10.5-4.7,10.5-10.5
		C38.3,20.7,33.6,16,27.8,16z"/>
</g>
<g>
	<g>
		<path class="st2" d="M27.6,6.1c-0.6,0-1.2-0.5-1.2-1.2V1.3c0-0.6,0.5-1.2,1.2-1.2s1.2,0.5,1.2,1.2V5C28.8,5.6,28.3,6.1,27.6,6.1z"
			/>
	</g>
	<g>
		<path class="st2" d="M45.7,16.6c-0.4,0-0.8-0.2-1-0.6c-0.3-0.5-0.1-1.3,0.4-1.6l3.3-1.9c0.5-0.3,1.3-0.1,1.6,0.4
			c0.3,0.5,0.1,1.3-0.4,1.6l-3.3,1.9C46.1,16.5,45.9,16.6,45.7,16.6z"/>
	</g>
	<g>
		<path class="st2" d="M9.9,16.6c-0.2,0-0.4-0.1-0.6-0.2L6,14.5c-0.5-0.3-0.7-1-0.4-1.6c0.3-0.5,1-0.7,1.6-0.4l3.3,1.9
			c0.5,0.3,0.7,1,0.4,1.6C10.7,16.4,10.3,16.6,9.9,16.6z"/>
	</g>
</g>
</svg>
