<?xml version="1.0" encoding="utf-8"?>
<!-- Generator: Adobe Illustrator 23.0.1, SVG Export Plug-In . SVG Version: 6.00 Build 0)  -->
<svg version="1.1" id="ic-verefied-reviews" xmlns="http://www.w3.org/2000/svg" xmlns:xlink="http://www.w3.org/1999/xlink"
	 x="0px" y="0px" viewBox="0 0 55 55" style="enable-background:new 0 0 55 55;" xml:space="preserve">
<style type="text/css">
	.st0{fill:#1FCC65;}
	.st1{fill:#00AF54;}
	.st2{fill:#FFFFFF;}
</style>
<g>
	<g>
		<path class="st0" d="M29.3,43.6C16.9,43.6,6.9,35,6.9,24.4c0-3.3,1-6.4,2.7-9.1c-5.5,3.1-9.1,8.5-9.1,14.5c0,4.8,2.2,9.1,5.9,12.2
			c-0.2,4.9-4.9,9.1-4.9,9.1c5.8,0,10.1-2.4,13-4.7c2,0.6,4.2,0.9,6.4,0.9c5,0,9.6-1.5,13.2-4.1C32.6,43.4,31,43.6,29.3,43.6z"/>
	</g>
	<g>
		<g>
			<path class="st1" d="M48,34.5c3.8-3.3,6.1-7.8,6.1-12.8c0-10.1-9.5-18.2-21.3-18.2s-21.3,8.2-21.3,18.2C11.4,31.8,21,40,32.7,40
				c2.3,0,4.6-0.3,6.7-0.9c3,2.4,7.6,4.9,13.6,4.9C53,43.9,48.1,39.6,48,34.5z"/>
		</g>
		<g>
			<g>
				<path class="st2" d="M42.6,28.7H27.8c-0.8,0-1.4-0.6-1.4-1.4c0-0.8,0.6-1.4,1.4-1.4h14.8c0.8,0,1.4,0.6,1.4,1.4
					C44,28.1,43.4,28.7,42.6,28.7z"/>
			</g>
			<g>
				<path class="st2" d="M43.7,20.5H21.8c-0.8,0-1.4-0.6-1.4-1.4s0.6-1.4,1.4-1.4h21.9c0.8,0,1.4,0.6,1.4,1.4S44.5,20.5,43.7,20.5z"
					/>
			</g>
		</g>
	</g>
	<g>
		<path class="st0" d="M7.1,12.6c-0.4,0-0.7-0.1-1-0.4L3.6,9.7C3,9.1,3,8.2,3.6,7.7c0.6-0.6,1.5-0.6,2,0l1.4,1.4l3.6-3.6
			c0.6-0.6,1.5-0.6,2,0c0.6,0.6,0.6,1.5,0,2l-4.6,4.6C7.8,12.4,7.4,12.6,7.1,12.6z"/>
	</g>
</g>
</svg>
