<?xml version="1.0" encoding="utf-8"?>
<!-- Generator: Adobe Illustrator 22.1.0, SVG Export Plug-In . SVG Version: 6.00 Build 0)  -->
<svg version="1.1" id="logo" xmlns="http://www.w3.org/2000/svg" xmlns:xlink="http://www.w3.org/1999/xlink" x="0px" y="0px"
	 viewBox="0 0 100 20" style="enable-background:new 0 0 100 20;" xml:space="preserve">
<style type="text/css">
	.st0{fill:#FFFFFF;}
</style>
<g>
	<polygon class="st0" points="10.1,12.9 6.1,13.9 10.4,18.6 	"/>
	<path class="st0" d="M5.1,8.7c0,0-0.8-0.2-1.5-0.2L1,8.7l4.4,4.5L5.1,8.7z"/>
	<polygon class="st0" points="5.6,8.9 5.9,13.5 9.7,12.6 	"/>
	<path class="st0" d="M17,5.4l-2.9,3.4c0.8,0.2,4.1,1,4.1,1L17,5.4z"/>
	<path class="st0" d="M23,4.3l1.6-1.9L22,2.5c-1.8,0.1-3.4,0.7-4.1,1.8l-0.3,0.4L23,4.3z"/>
	<polygon class="st0" points="17.4,5 18.6,9.4 22.7,4.7 	"/>
	<path class="st0" d="M13.9,9.1l0.3,5.2l3.6-4.2C17.3,10.1,13.9,9.1,13.9,9.1z"/>
	<polygon class="st0" points="13.5,9.5 10.9,12.5 13.8,14.8 	"/>
	<polygon class="st0" points="10.6,12.8 10.9,18.6 13.6,15.2 	"/>
</g>
<g>
	<path class="st0" d="M30.2,9.4c0,0.3-0.2,0.5-0.5,0.5c-0.2,0-0.4,0.1-0.6,0.2c-0.2,0.1-0.3,0.3-0.4,0.5c-0.2,0.3-0.3,0.7-0.4,0.8
		v1.8c0,0.3-0.2,0.5-0.5,0.5c-0.3,0-0.5-0.2-0.5-0.5V9.4c0-0.3,0.2-0.5,0.5-0.5c0.3,0,0.5,0.2,0.5,0.5v0.1c0.1-0.1,0.1-0.1,0.2-0.2
		c0.3-0.2,0.7-0.4,1.2-0.4C30,8.9,30.2,9.1,30.2,9.4z"/>
	<path class="st0" d="M30.7,11.3c0-1.3,1-2.4,2.3-2.4c1.2,0,2.2,0.9,2.3,2.2c0,0,0,0,0,0c0,0,0,0.1,0,0.1c0,0.2-0.2,0.4-0.5,0.4h-3
		c0,0.2,0.2,0.5,0.3,0.6c0.2,0.2,0.6,0.4,0.9,0.4c0.3,0,0.8-0.1,1-0.2c0.2-0.2,0.6-0.2,0.7,0c0.1,0.1,0.2,0.4,0,0.6
		c-0.5,0.4-1,0.6-1.7,0.6C31.7,13.6,30.7,12.6,30.7,11.3z M31.7,10.8h2.7c-0.1-0.4-0.6-0.9-1.4-1C32.2,9.8,31.8,10.4,31.7,10.8z"/>
	<path class="st0" d="M40.3,9.7l-1.6,3.7c0,0,0,0.1,0,0.1c0,0,0,0,0,0c0,0,0,0-0.1,0.1c0,0,0,0,0,0c0,0,0,0-0.1,0.1c0,0,0,0,0,0
		c0,0,0,0-0.1,0c0,0,0,0,0,0c0,0,0,0,0,0c0,0-0.1,0-0.1,0c0,0,0,0,0,0c0,0-0.1,0-0.1,0c0,0,0,0-0.1,0c0,0,0,0,0,0c0,0,0,0-0.1,0
		c0,0,0,0,0,0c0,0,0,0,0,0c0,0,0,0-0.1,0c0,0,0,0,0,0c0,0,0,0-0.1-0.1c0,0,0,0,0,0c0,0,0,0,0-0.1c0,0,0,0,0,0c0,0,0,0,0-0.1
		l-1.5-3.7c-0.1-0.3,0-0.5,0.3-0.6c0.2-0.1,0.5,0,0.6,0.3l1.1,2.6l1.1-2.6C39.5,9,39.8,8.9,40,9C40.3,9.1,40.4,9.4,40.3,9.7z"/>
	<path class="st0" d="M43.1,7.7c0,0.3-0.2,0.5-0.5,0.5c-0.3,0-0.5-0.2-0.5-0.5V7.5c0-0.3,0.2-0.5,0.5-0.5c0.3,0,0.5,0.2,0.5,0.5V7.7
		z M43.1,9.4v3.7c0,0.3-0.2,0.5-0.5,0.5c-0.3,0-0.5-0.2-0.5-0.5V9.4c0-0.3,0.2-0.5,0.5-0.5C42.9,8.9,43.1,9.1,43.1,9.4z"/>
	<path class="st0" d="M44.4,11.3c0-1.3,1-2.4,2.3-2.4c1.2,0,2.2,0.9,2.3,2.2c0,0,0,0,0,0c0,0,0,0.1,0,0.1c0,0.2-0.2,0.4-0.5,0.4h-3
		c0,0.2,0.2,0.5,0.3,0.6c0.2,0.2,0.6,0.4,0.9,0.4c0.3,0,0.8-0.1,1-0.2c0.2-0.2,0.6-0.2,0.7,0c0.1,0.1,0.2,0.4,0,0.6
		c-0.5,0.4-1,0.6-1.7,0.6C45.4,13.6,44.4,12.6,44.4,11.3z M45.5,10.8h2.7c-0.1-0.4-0.6-0.9-1.4-1C45.9,9.8,45.5,10.4,45.5,10.8z"/>
	<path class="st0" d="M56.4,9.7l-1.6,3.7c0,0,0,0,0,0.1c0,0,0,0,0,0c0,0,0,0,0,0.1c0,0,0,0,0,0c0,0,0,0-0.1,0c0,0,0,0,0,0
		c0,0,0,0-0.1,0c0,0,0,0,0,0c0,0,0,0-0.1,0c0,0,0,0,0,0c0,0-0.1,0-0.1,0c0,0-0.1,0-0.1,0c0,0,0,0,0,0c0,0,0,0-0.1,0c0,0,0,0,0,0
		c0,0,0,0,0,0c0,0-0.1,0-0.1-0.1c0,0,0,0,0,0c0,0,0,0-0.1,0c0,0,0,0,0,0c0,0,0,0,0-0.1c0,0,0,0,0,0c0,0,0-0.1,0-0.1l-0.7-1.6
		l-0.7,1.6c0,0,0,0,0,0.1v0c0,0,0,0-0.1,0.1c0,0,0,0,0,0c0,0,0,0-0.1,0.1c0,0-0.1,0-0.1,0.1h0c0,0,0,0,0,0c0,0,0,0-0.1,0
		c0,0,0,0,0,0c0,0-0.1,0-0.1,0c0,0-0.1,0-0.1,0c0,0,0,0,0,0c0,0,0,0-0.1,0c0,0,0,0,0,0c0,0-0.1,0-0.1-0.1c0,0,0,0,0,0c0,0,0,0-0.1,0
		c0,0,0,0,0,0c0,0,0,0,0-0.1c0,0,0,0,0,0c0,0,0-0.1,0-0.1l-1.6-3.7c-0.1-0.3,0-0.5,0.3-0.7c0.2-0.1,0.5,0,0.6,0.3l1.1,2.6l0.7-1.6
		c0.1-0.2,0.3-0.3,0.5-0.3c0.2,0,0.4,0.1,0.5,0.3l0.7,1.6l1.1-2.6C55.6,9,55.9,8.9,56.1,9C56.4,9.1,56.5,9.4,56.4,9.7z"/>
	<path class="st0" d="M58.1,12.3c0.2-0.2,0.5-0.3,0.7-0.1c0.2,0.2,0.7,0.4,1,0.4c0.3,0,0.5-0.1,0.6-0.2c0.1-0.1,0.2-0.2,0.2-0.3
		c0,0,0-0.1,0-0.1c0,0,0-0.1-0.1-0.1c-0.1-0.1-0.4-0.2-0.8-0.3h0c-0.3-0.1-0.6-0.1-0.8-0.2c-0.3-0.1-0.5-0.3-0.7-0.6
		c-0.1-0.2-0.2-0.4-0.2-0.6c0-0.4,0.2-0.8,0.6-1C59,9,59.4,8.9,59.8,8.9c0.7,0,1.1,0.3,1.4,0.5c0.2,0.2,0.3,0.5,0.2,0.7
		c-0.2,0.2-0.5,0.3-0.7,0.1c-0.3-0.2-0.6-0.4-0.9-0.4c-0.2,0-0.4,0.1-0.6,0.2c-0.1,0.1-0.2,0.2-0.2,0.2c0,0,0,0,0,0.1
		c0,0,0,0.1,0.1,0.1c0.1,0.1,0.4,0.2,0.7,0.2l0,0h0c0.3,0.1,0.6,0.1,0.9,0.3c0.3,0.1,0.5,0.3,0.7,0.6c0.1,0.2,0.2,0.4,0.2,0.6
		c0,0.5-0.3,0.9-0.6,1.1c-0.3,0.2-0.8,0.4-1.2,0.4c-0.7,0-1.3-0.4-1.7-0.7C58,12.8,57.9,12.5,58.1,12.3z"/>
	<path class="st0" d="M63.4,12.9c-0.4-0.4-0.7-1-0.7-1.7c0-0.6,0.2-1.2,0.7-1.7c0.4-0.4,1-0.7,1.6-0.7c0.6,0,1.2,0.3,1.6,0.7
		c0.4,0.5,0.7,1,0.7,1.7c0,0.7-0.2,1.3-0.7,1.7c-0.4,0.4-1,0.7-1.6,0.7C64.4,13.7,63.9,13.4,63.4,12.9z M63.8,11.3
		c0,0.4,0.1,0.7,0.3,1c0.2,0.2,0.6,0.4,0.9,0.4c0.3,0,0.6-0.1,0.9-0.4c0.2-0.3,0.4-0.6,0.4-1c0-0.4-0.1-0.7-0.4-1
		c-0.2-0.2-0.5-0.4-0.9-0.4c-0.4,0-0.7,0.2-0.9,0.4C63.9,10.5,63.8,10.9,63.8,11.3z"/>
	<path class="st0" d="M69.5,7c0.3,0,0.5,0.2,0.5,0.5v5.6c0,0.3-0.2,0.5-0.5,0.5c-0.3,0-0.5-0.2-0.5-0.5V7.5C69,7.2,69.2,7,69.5,7z"
		/>
	<path class="st0" d="M72.3,7.7c0,0.3-0.2,0.5-0.5,0.5c-0.3,0-0.5-0.2-0.5-0.5V7.5c0-0.3,0.2-0.5,0.5-0.5c0.3,0,0.5,0.2,0.5,0.5V7.7
		z M72.3,9.4v3.7c0,0.3-0.2,0.5-0.5,0.5c-0.3,0-0.5-0.2-0.5-0.5V9.4c0-0.3,0.2-0.5,0.5-0.5C72.1,8.9,72.3,9.1,72.3,9.4z"/>
	<path class="st0" d="M73.6,11.3c0-1.3,1.1-2.4,2.4-2.4c0.6,0,1.1,0.2,1.5,0.5c0.2,0.2,0.3,0.5,0.1,0.7c-0.2,0.2-0.5,0.3-0.7,0.1
		c-0.2-0.2-0.6-0.3-0.9-0.3c-0.8,0-1.4,0.6-1.4,1.4c0,0.7,0.6,1.4,1.4,1.4c0.3,0,0.7-0.1,0.9-0.3c0.2-0.2,0.5-0.1,0.7,0.1
		c0.2,0.2,0.1,0.5-0.1,0.7c-0.4,0.3-0.9,0.5-1.5,0.5C74.7,13.6,73.6,12.6,73.6,11.3z"/>
	<path class="st0" d="M80.4,7.7c0,0.3-0.2,0.5-0.5,0.5c-0.3,0-0.5-0.2-0.5-0.5V7.5c0-0.3,0.2-0.5,0.5-0.5c0.3,0,0.5,0.2,0.5,0.5V7.7
		z M80.4,9.4v3.7c0,0.3-0.2,0.5-0.5,0.5c-0.3,0-0.5-0.2-0.5-0.5V9.4c0-0.3,0.2-0.5,0.5-0.5C80.2,8.9,80.4,9.1,80.4,9.4z"/>
	<path class="st0" d="M84.2,9.4c0,0.3-0.2,0.5-0.5,0.5h-0.2v2.7c0.3,0,0.5,0.2,0.5,0.5c0,0.3-0.2,0.5-0.5,0.5
		c-0.6,0-1.1-0.5-1.1-1.1V9.9h-0.3c-0.3,0-0.5-0.2-0.5-0.5c0-0.3,0.2-0.5,0.5-0.5h0.3V7.5c0-0.3,0.2-0.5,0.5-0.5
		c0.3,0,0.5,0.2,0.5,0.5v1.4h0.2C84,8.9,84.2,9.1,84.2,9.4z"/>
	<path class="st0" d="M86.2,12.9c-0.4-0.4-0.7-1-0.7-1.7c0-0.6,0.2-1.2,0.7-1.7c0.4-0.4,1-0.7,1.6-0.7c0.6,0,1.2,0.3,1.6,0.7
		c0.4,0.5,0.7,1,0.7,1.7c0,0.7-0.2,1.3-0.7,1.7c-0.4,0.4-1,0.7-1.6,0.7C87.1,13.7,86.6,13.4,86.2,12.9z M86.5,11.3
		c0,0.4,0.1,0.7,0.3,1c0.2,0.2,0.6,0.4,0.9,0.4c0.3,0,0.6-0.1,0.9-0.4c0.2-0.3,0.4-0.6,0.4-1c0-0.4-0.1-0.7-0.4-1
		c-0.2-0.2-0.5-0.4-0.9-0.4c-0.4,0-0.7,0.2-0.9,0.4C86.7,10.5,86.5,10.9,86.5,11.3z"/>
	<path class="st0" d="M94.4,9.4c0,0.3-0.2,0.5-0.5,0.5c-0.2,0-0.4,0.1-0.6,0.2c-0.2,0.1-0.3,0.3-0.4,0.5c-0.2,0.3-0.3,0.7-0.4,0.8
		v1.8c0,0.3-0.2,0.5-0.5,0.5c-0.3,0-0.5-0.2-0.5-0.5V9.4c0-0.3,0.2-0.5,0.5-0.5c0.3,0,0.5,0.2,0.5,0.5v0.1c0.1-0.1,0.1-0.1,0.2-0.2
		c0.3-0.2,0.7-0.4,1.2-0.4C94.2,8.9,94.4,9.1,94.4,9.4z"/>
	<path class="st0" d="M95.4,12.3c0.2-0.2,0.5-0.3,0.7-0.1c0.2,0.2,0.7,0.4,1,0.4c0.3,0,0.5-0.1,0.6-0.2c0.1-0.1,0.2-0.2,0.2-0.3
		c0,0,0-0.1,0-0.1c0,0,0-0.1-0.1-0.1c-0.1-0.1-0.4-0.2-0.8-0.3h0c-0.3-0.1-0.6-0.1-0.8-0.2c-0.3-0.1-0.5-0.3-0.7-0.6
		c-0.1-0.2-0.2-0.4-0.2-0.6c0-0.4,0.2-0.8,0.6-1c0.3-0.2,0.7-0.4,1.2-0.4c0.7,0,1.1,0.3,1.4,0.5c0.2,0.2,0.3,0.5,0.2,0.7
		c-0.2,0.2-0.5,0.3-0.7,0.1c-0.3-0.2-0.6-0.4-0.9-0.4c-0.2,0-0.4,0.1-0.6,0.2c-0.1,0.1-0.2,0.2-0.2,0.2c0,0,0,0,0,0.1
		c0,0,0,0.1,0.1,0.1c0.1,0.1,0.4,0.2,0.7,0.2l0,0h0c0.3,0.1,0.6,0.1,0.9,0.3c0.3,0.1,0.5,0.3,0.7,0.6c0.1,0.2,0.2,0.4,0.2,0.6
		c0,0.5-0.3,0.9-0.6,1.1c-0.3,0.2-0.8,0.4-1.2,0.4c-0.7,0-1.3-0.4-1.7-0.7C95.3,12.8,95.2,12.5,95.4,12.3z"/>
</g>
</svg>
