<?xml version="1.0" encoding="utf-8"?>
<!-- Generator: Adobe Illustrator 22.1.0, SVG Export Plug-In . SVG Version: 6.00 Build 0)  -->
<svg version="1.1" id="logo-google" xmlns="http://www.w3.org/2000/svg" xmlns:xlink="http://www.w3.org/1999/xlink" x="0px"
	 y="0px" viewBox="0 0 74 24" style="enable-background:new 0 0 74 24;" xml:space="preserve">
<style type="text/css">
	.st0{fill:#4285F4;}
	.st1{fill:#EA4335;}
	.st2{fill:#FBBC05;}
	.st3{fill:#34A853;}
</style>
<g>
	<path class="st0" d="M9.6,8.7v2.5h5.9c-0.2,1.4-0.6,2.4-1.3,3.1c-0.9,0.9-2.2,1.8-4.5,1.8c-3.6,0-6.4-2.9-6.4-6.5S6,3,9.6,3
		C11.5,3,13,3.7,14,4.7L15.7,3c-1.5-1.4-3.4-2.5-6.2-2.5c-5,0-9.1,4-9.1,9s4.2,9,9.1,9c2.7,0,4.7-0.9,6.3-2.5
		c1.6-1.6,2.1-3.9,2.1-5.8c0-0.6,0-1.1-0.1-1.5H9.6z"/>
	<path class="st1" d="M25.3,6.7c-3.2,0-5.8,2.4-5.8,5.8c0,3.3,2.6,5.8,5.8,5.8s5.8-2.5,5.8-5.8C31.2,9.1,28.5,6.7,25.3,6.7z
		 M25.3,16c-1.8,0-3.3-1.5-3.3-3.5c0-2.1,1.5-3.5,3.3-3.5s3.3,1.4,3.3,3.5C28.6,14.6,27.1,16,25.3,16z"/>
	<path class="st0" d="M53.9,8L53.9,8c-0.7-0.7-1.8-1.3-3.2-1.3c-2.9,0-5.4,2.5-5.4,5.8c0,3.3,2.5,5.8,5.4,5.8c1.4,0,2.5-0.6,3.1-1.3
		h0.1v0.8c0,2.2-1.2,3.4-3.1,3.4c-1.6,0-2.5-1.1-2.9-2.1l-2.2,0.9c0.6,1.5,2.3,3.4,5.2,3.4c3,0,5.5-1.8,5.5-6V7h-2.4V8z M51,16
		c-1.8,0-3.1-1.5-3.1-3.5c0-2.1,1.3-3.5,3.1-3.5c1.7,0,3.1,1.5,3.1,3.5C54.1,14.6,52.7,16,51,16z"/>
	<path class="st2" d="M38.3,6.7c-3.2,0-5.8,2.4-5.8,5.8c0,3.3,2.6,5.8,5.8,5.8s5.8-2.5,5.8-5.8C44.2,9.1,41.6,6.7,38.3,6.7z
		 M38.3,16c-1.8,0-3.3-1.5-3.3-3.5c0-2.1,1.5-3.5,3.3-3.5s3.3,1.4,3.3,3.5C41.6,14.6,40.1,16,38.3,16z"/>
	<path class="st3" d="M58.3,0.7h2.5v17.6h-2.5V0.7z"/>
	<path class="st1" d="M68.6,16c-1.3,0-2.2-0.6-2.8-1.8l7.8-3.2l-0.3-0.7c-0.5-1.3-2-3.7-5-3.7c-3,0-5.5,2.4-5.5,5.8
		c0,3.3,2.5,5.8,5.8,5.8c2.7,0,4.2-1.6,4.8-2.6l-2-1.3C70.8,15.4,69.9,16,68.6,16L68.6,16z M68.4,8.9c1,0,1.9,0.5,2.2,1.3l-5.2,2.2
		C65.4,9.9,67.1,8.9,68.4,8.9z"/>
</g>
</svg>
